<?xml version="1.0" ?><!DOCTYPE svg  PUBLIC '-//W3C//DTD SVG 1.0//EN'  'http://www.w3.org/TR/2001/REC-SVG-20010904/DTD/svg10.dtd'><svg enable-background="new 0 0 200 200" height="200px" id="Layer_1" version="1.0" viewBox="0 0 200 200" width="200px" xml:space="preserve" xmlns="http://www.w3.org/2000/svg" xmlns:xlink="http://www.w3.org/1999/xlink"><g id="New_Symbol"/><g id="New_Symbol_1_"/><g id="New_Symbol_1"/><g id="New_Symbol_9_2_"/><g id="New_Symbol_7"/><g id="New_Symbol_9_1_"/><g id="New_Symbol_9"/><g id="Nuevo_símbolo"/><g id="New_Symbol_10"/><g id="New_Symbol_12"/><g id="New_Symbol_14"/><g id="New_Symbol_15"/><g id="New_Symbol_16"/><g id="New_Symbol_17_1_"/><g id="New_Symbol_18"/><g id="New_Symbol_19"/><g id="New_Symbol_17"/><g><path d="M100,107.2l-6.7-13l0.9-1.1c2.1-2.7,3.8-5.6,5-8.7l0.5-1.3l14.7-0.6l1.1-8.7l-14-4.2l-0.2-1.4   c-0.4-3.3-1.2-6.6-2.6-9.7L98.1,57l10-10.8l-5.3-7l-12.9,6.9l-1.1-0.9c-2.6-2.1-5.6-3.8-8.7-5l-1.3-0.5L78,25l-8.7-1.2l-4.2,14   L63.7,38c-3.4,0.4-6.7,1.2-9.8,2.6l-1.3,0.6l-10.8-9.9l-7,5.3l6.9,12.8l-0.9,1.1c-2.1,2.7-3.8,5.6-5.1,8.7l-0.5,1.4l-14.5,0.5   l-1.2,8.7l13.8,4.4l0.2,1.4c0.4,3.4,1.3,6.7,2.6,9.8l0.6,1.3l-9.9,10.6l5.3,7L45,97.7l1.1,0.9c2.7,2.1,5.6,3.8,8.8,5.1l1.4,0.5   l0.5,14.5l8.7,1.2l4.4-13.9l1.4-0.2c3.4-0.4,6.7-1.3,9.8-2.6l1.3-0.6l10.6,10L100,107.2z M80,100.9c-2.9,1.3-5.9,2.1-9.1,2.4   l-3,0.3l-4.2,13.4l-4.5-0.6l-0.5-14l-2.9-1.1c-2.9-1.1-5.7-2.7-8.1-4.7l-2.4-1.9l-12.5,6.5l-2.8-3.6l9.6-10.2l-1.2-2.8   c-1.3-2.9-2.1-6-2.4-9.1l-0.3-3l-13.4-4.3l0.6-4.5l14.1-0.5l1.1-2.9c1.1-2.9,2.7-5.6,4.7-8.1l2-2.4l-6.6-12.4l3.6-2.8l10.4,9.6   l2.8-1.2c2.9-1.2,5.9-2.1,9-2.4l3.1-0.3l4.1-13.5l4.5,0.6l0.6,14.2l2.8,1.1c2.9,1.1,5.6,2.7,8.1,4.7l2.4,1.9l12.5-6.7l2.8,3.6   l-9.6,10.5l1.2,2.8c1.2,2.9,2.1,5.9,2.4,9l0.4,3.1l13.6,4.1l-0.6,4.5l-14.2,0.6l-1.1,2.9c-1.1,2.9-2.7,5.6-4.6,8.1l-1.9,2.4   l6.5,12.6l-3.6,2.8l-10.3-9.6L80,100.9z" fill="#1D1D1B"/><path d="M67.5,56.9c-3.3,0-6.4,1.1-9.1,3.1c-6.5,5-7.8,14.4-2.8,20.9c2.8,3.7,7.2,5.8,11.9,5.8   c3.3,0,6.4-1.1,9.1-3.1c3.2-2.4,5.2-5.9,5.7-9.9c0.5-4-0.5-7.9-2.9-11C76.5,59.1,72.2,56.9,67.5,56.9z M79.8,73.5   c-0.4,3.3-2.1,6.2-4.8,8.2c-2.2,1.7-4.8,2.6-7.5,2.6c-3.9,0-7.5-1.8-9.9-4.9C53.5,74,54.5,66.1,59.9,62c2.2-1.7,4.8-2.6,7.5-2.6   c3.9,0,7.5,1.8,9.9,4.9C79.4,66.9,80.2,70.2,79.8,73.5z" fill="#1D1D1B"/><path d="M85.7,57.9c-4.4-5.7-11-9-18.2-9c-5.1,0-9.9,1.6-13.9,4.7c-10,7.7-12,22.1-4.3,32.2c4.4,5.7,11,9,18.2,9   c0,0,0,0,0,0c5.1,0,9.9-1.6,13.9-4.7c4.9-3.7,8-9.1,8.8-15.2C91,68.8,89.4,62.8,85.7,57.9z M87.7,74.5C87,80,84.2,84.8,79.9,88.1   c-3.6,2.8-7.9,4.2-12.4,4.2c-6.4,0-12.4-2.9-16.3-8c-6.9-9-5.1-21.8,3.8-28.7c3.6-2.7,7.9-4.2,12.4-4.2c6.4,0,12.4,2.9,16.3,8   C87,63.7,88.5,69.1,87.7,74.5z" fill="#1D1D1B"/><path d="M164.2,140.7l0.5-1.3l14.7-0.6l1.1-8.7l-14-4.2l-0.2-1.4c-0.4-3.3-1.3-6.6-2.6-9.7l-0.6-1.3l10-10.8l-5.3-7   l-12.9,6.9l-1.1-0.9c-2.6-2.1-5.6-3.8-8.7-5l-1.3-0.5l-0.6-14.7l-8.7-1.2l-4.2,14l-1.5,0.2c-3.4,0.4-6.7,1.2-9.8,2.6l-1.3,0.6   l-10.8-9.9l-7,5.3l6.9,12.8l-0.9,1.1c-2.1,2.7-3.8,5.6-5.1,8.7l-0.5,1.4l-14.5,0.5l-1.2,8.7l13.8,4.4l0.2,1.4   c0.4,3.4,1.3,6.7,2.6,9.8l0.6,1.3l-9.9,10.6l5.3,7L110,154l1.1,0.9c2.7,2.1,5.6,3.8,8.8,5.1l1.4,0.5l0.5,14.5l8.7,1.2l4.4-13.9   l1.4-0.2c3.4-0.4,6.7-1.3,9.8-2.6l1.3-0.6l10.6,10l7-5.3l-6.7-13l0.9-1.1C161.3,146.8,162.9,143.8,164.2,140.7z M161.8,162.8   l-3.6,2.8l-10.3-9.6l-2.8,1.2c-2.9,1.3-5.9,2.1-9.1,2.4l-3,0.3l-4.2,13.4l-4.5-0.6l-0.5-14l-2.9-1.1c-2.9-1.1-5.7-2.7-8.1-4.7   l-2.4-1.9l-12.5,6.5l-2.8-3.6l9.6-10.2l-1.2-2.8c-1.3-2.9-2.1-6-2.4-9.1l-0.3-3l-13.4-4.3l0.6-4.5l14.1-0.5l1.1-2.9   c1.1-2.9,2.7-5.6,4.7-8.1l2-2.4l-6.6-12.4l3.6-2.8l10.4,9.6l2.8-1.2c2.9-1.2,5.9-2.1,9-2.4l3.1-0.3l4.1-13.5l4.5,0.6l0.6,14.2   l2.8,1.1c2.9,1.1,5.6,2.7,8.1,4.7l2.4,1.9l12.5-6.7l2.8,3.6l-9.6,10.5l1.2,2.8c1.2,2.9,2.1,5.9,2.4,9l0.4,3.1l13.6,4.1l-0.6,4.5   l-14.2,0.6l-1.1,2.9c-1.1,2.9-2.7,5.6-4.6,8.1l-1.9,2.4L161.8,162.8z" fill="#1D1D1B"/><path d="M132.5,113.3c-3.3,0-6.4,1.1-9.1,3.1c-6.5,5-7.8,14.4-2.8,20.9c2.8,3.7,7.2,5.8,11.9,5.8   c3.3,0,6.4-1.1,9.1-3.1c6.5-5,7.8-14.4,2.8-20.9C141.5,115.4,137.2,113.3,132.5,113.3z M140,138c-2.2,1.7-4.8,2.6-7.5,2.6   c-3.9,0-7.5-1.8-9.9-4.9c-4.2-5.4-3.1-13.2,2.3-17.4c2.2-1.7,4.8-2.6,7.5-2.6c3.9,0,7.5,1.8,9.9,4.9   C146.5,126.1,145.5,133.9,140,138z" fill="#1D1D1B"/><path d="M132.5,105.2c-5.1,0-9.9,1.6-13.9,4.7c-10,7.7-12,22.1-4.3,32.2c4.4,5.7,11,9,18.2,9c0,0,0,0,0,0   c5.1,0,9.9-1.6,13.9-4.7c4.9-3.7,8-9.1,8.8-15.2c0.8-6.1-0.8-12.1-4.5-17C146.3,108.5,139.7,105.2,132.5,105.2z M152.8,130.9   c-0.7,5.4-3.5,10.2-7.8,13.5c-3.6,2.8-7.9,4.2-12.4,4.2c-6.4,0-12.4-2.9-16.3-8c-6.9-9-5.1-21.8,3.8-28.7c3.6-2.7,7.9-4.2,12.4-4.2   c6.4,0,12.4,2.9,16.3,8C152,120.1,153.5,125.4,152.8,130.9z" fill="#1D1D1B"/></g></svg>