<?xml version="1.0" encoding="iso-8859-1"?>
<!-- Generator: Adobe Illustrator 19.0.0, SVG Export Plug-In . SVG Version: 6.00 Build 0)  -->
<svg version="1.1" id="Layer_1" xmlns="http://www.w3.org/2000/svg" xmlns:xlink="http://www.w3.org/1999/xlink" x="0px" y="0px"
	 viewBox="0 0 511.999 511.999" style="enable-background:new 0 0 511.999 511.999;" xml:space="preserve">
<polygon style="fill:#F7B239;" points="306.786,226.683 285.318,255.998 306.786,285.314 270.655,281.39 256.003,314.64 
	241.34,281.39 205.22,285.314 226.677,255.998 205.22,226.683 241.34,230.607 256.003,197.356 270.655,230.607 "/>
<g>
	<path style="fill:#333333;" d="M257.01,170.924c-0.031,0-0.062,0-0.094,0c-4.697-0.051-8.463-3.9-8.412-8.597l1.669-153.914
		c0.05-4.696,3.861-8.465,8.597-8.412c4.697,0.051,8.463,3.9,8.412,8.597l-1.669,153.914
		C265.463,167.177,261.664,170.924,257.01,170.924z"/>
	<path style="fill:#333333;" d="M253.322,511.999c-0.031,0-0.062,0-0.094,0c-4.697-0.051-8.463-3.9-8.412-8.597l1.669-153.901
		c0.05-4.696,3.868-8.457,8.597-8.412c4.697,0.051,8.463,3.9,8.412,8.597l-1.669,153.901
		C261.775,508.251,257.976,511.999,253.322,511.999z"/>
	<path style="fill:#333333;" d="M322.885,199.047c-2.208,0-4.414-0.854-6.08-2.556c-3.285-3.357-3.228-8.742,0.13-12.028
		L426.95,76.81c3.358-3.285,8.742-3.228,12.028,0.13c3.285,3.357,3.228,8.742-0.13,12.028L328.833,196.622
		C327.179,198.24,325.031,199.047,322.885,199.047z"/>
	<path style="fill:#333333;" d="M79.101,437.616c-2.208,0-4.414-0.854-6.08-2.556c-3.285-3.357-3.228-8.742,0.13-12.028
		l110.004-107.644c3.358-3.285,8.742-3.228,12.028,0.13c3.285,3.357,3.228,8.742-0.13,12.028L85.049,435.19
		C83.393,436.808,81.247,437.616,79.101,437.616z"/>
	<path style="fill:#333333;" d="M503.495,267.183c-0.031,0-0.062,0-0.094,0l-153.914-1.669c-4.697-0.051-8.463-3.9-8.412-8.597
		c0.05-4.665,3.849-8.412,8.503-8.412c0.031,0,0.062,0,0.094,0l153.914,1.669c4.697,0.051,8.463,3.9,8.412,8.597
		C511.948,263.435,508.15,267.183,503.495,267.183z"/>
	<path style="fill:#333333;" d="M162.407,263.496c-0.031,0-0.062,0-0.094,0l-153.9-1.67c-4.697-0.051-8.463-3.9-8.412-8.597
		c0.05-4.665,3.849-8.412,8.503-8.412c0.031,0,0.062,0,0.094,0l153.9,1.669c4.697,0.051,8.463,3.9,8.412,8.597
		C170.861,259.747,167.062,263.496,162.407,263.496z"/>
	<path style="fill:#333333;" d="M429.111,441.403c-2.208,0-4.414-0.854-6.08-2.556L315.378,328.834
		c-3.285-3.357-3.228-8.742,0.13-12.028c3.358-3.284,8.742-3.228,12.028,0.13L435.189,426.95c3.285,3.357,3.228,8.742-0.13,12.028
		C433.404,440.596,431.256,441.403,429.111,441.403z"/>
	<path style="fill:#333333;" d="M190.533,197.61c-2.208,0-4.414-0.854-6.08-2.556L76.81,85.049
		c-3.285-3.357-3.228-8.742,0.13-12.028c3.358-3.284,8.741-3.228,12.028,0.13l107.643,110.004c3.285,3.357,3.228,8.742-0.13,12.028
		C194.827,196.803,192.679,197.61,190.533,197.61z"/>
	<path style="fill:#333333;" d="M205.698,139.245c-3.372,0-6.563-2.017-7.895-5.338l-16.928-42.154
		c-1.75-4.359,0.364-9.312,4.723-11.063c4.359-1.75,9.312,0.364,11.063,4.723l16.928,42.154c1.75,4.359-0.364,9.312-4.723,11.063
		C207.826,139.047,206.752,139.245,205.698,139.245z"/>
	<path style="fill:#333333;" d="M323.234,431.923c-3.373,0-6.564-2.019-7.896-5.34l-16.912-42.146
		c-1.749-4.359,0.366-9.312,4.726-11.06c4.358-1.752,9.311,0.366,11.06,4.726l16.912,42.146c1.749,4.359-0.366,9.312-4.726,11.06
		C325.361,431.725,324.289,431.923,323.234,431.923z"/>
	<path style="fill:#333333;" d="M308.999,140.36c-1.114,0-2.247-0.22-3.336-0.685c-4.32-1.844-6.327-6.842-4.482-11.162
		l17.838-41.774c1.845-4.32,6.841-6.326,11.162-4.482c4.32,1.844,6.327,6.842,4.482,11.162l-17.838,41.774
		C315.446,138.423,312.302,140.36,308.999,140.36z"/>
	<path style="fill:#333333;" d="M185.155,430.428c-1.115,0-2.247-0.22-3.336-0.685c-4.32-1.845-6.327-6.843-4.482-11.162
		l17.838-41.766c1.845-4.32,6.843-6.326,11.162-4.482c4.32,1.845,6.327,6.843,4.482,11.162l-17.838,41.766
		C191.601,428.491,188.459,430.428,185.155,430.428z"/>
	<path style="fill:#333333;" d="M381.267,214.195c-3.372,0-6.563-2.019-7.895-5.339c-1.75-4.359,0.365-9.312,4.724-11.062
		l43.032-17.275c4.355-1.75,9.312,0.365,11.062,4.724c1.75,4.359-0.365,9.312-4.724,11.062l-43.032,17.275
		C383.395,213.997,382.323,214.195,381.267,214.195z"/>
	<path style="fill:#333333;" d="M88.586,331.739c-3.372,0-6.563-2.017-7.895-5.338c-1.75-4.359,0.364-9.312,4.723-11.063
		l42.141-16.922c4.362-1.75,9.312,0.364,11.063,4.723c1.75,4.359-0.364,9.312-4.723,11.063l-42.141,16.922
		C90.714,331.542,89.641,331.739,88.586,331.739z"/>
	<path style="fill:#333333;" d="M421.917,335.348c-1.115,0-2.248-0.22-3.337-0.686l-41.771-17.847
		c-4.32-1.845-6.326-6.844-4.48-11.164c1.846-4.32,6.843-6.326,11.164-4.48l41.771,17.847c4.32,1.845,6.326,6.844,4.48,11.164
		C428.362,333.411,425.22,335.348,421.917,335.348z"/>
	<path style="fill:#333333;" d="M131.836,211.498c-1.114,0-2.247-0.22-3.336-0.685l-41.761-17.832
		c-4.32-1.844-6.327-6.842-4.482-11.162c1.845-4.321,6.842-6.327,11.162-4.482l41.762,17.832c4.32,1.844,6.327,6.842,4.482,11.162
		C138.283,209.561,135.139,211.498,131.836,211.498z"/>
	<path style="fill:#333333;" d="M256,323.142c-3.37,0-6.423-1.99-7.782-5.074l-12.148-27.55l-29.932,3.255
		c-3.353,0.363-6.6-1.284-8.285-4.203c-1.685-2.919-1.488-6.557,0.502-9.277l17.785-24.295l-17.785-24.295
		c-1.99-2.719-2.188-6.358-0.502-9.277c1.685-2.919,4.933-4.57,8.285-4.203l29.933,3.255l12.148-27.55
		c1.36-3.083,4.413-5.074,7.782-5.074l0,0c3.37,0,6.423,1.99,7.782,5.074l12.147,27.55l29.933-3.255
		c3.349-0.367,6.599,1.284,8.285,4.203c1.685,2.919,1.488,6.557-0.502,9.277l-17.785,24.295l17.785,24.295
		c1.99,2.719,2.188,6.358,0.502,9.277c-1.685,2.919-4.93,4.567-8.285,4.203l-29.932-3.255l-12.147,27.55
		C262.423,321.152,259.37,323.142,256,323.142z M241.343,272.884c3.34,0,6.409,1.966,7.778,5.075l6.877,15.597l6.876-15.597
		c1.496-3.393,5.018-5.429,8.703-5.024l16.945,1.843l-10.068-13.754c-2.19-2.992-2.19-7.057,0-10.048l10.068-13.754l-16.946,1.843
		c-3.681,0.4-7.206-1.632-8.702-5.024l-6.876-15.597l-6.877,15.597c-1.496,3.393-5.022,5.424-8.702,5.024l-16.946-1.843
		l10.068,13.754c2.19,2.992,2.19,7.057,0,10.048l-10.068,13.754l16.945-1.843C240.73,272.901,241.038,272.884,241.343,272.884z"/>
	<circle style="fill:#333333;" cx="483.832" cy="163.768" r="8.505"/>
	<circle style="fill:#333333;" cx="351.341" cy="28.373" r="8.505"/>
	<circle style="fill:#333333;" cx="161.92" cy="26.321" r="8.505"/>
	<circle style="fill:#333333;" cx="26.527" cy="158.812" r="8.505"/>
	<circle style="fill:#333333;" cx="24.475" cy="348.233" r="8.505"/>
	<circle style="fill:#333333;" cx="156.964" cy="483.628" r="8.505"/>
	<circle style="fill:#333333;" cx="346.385" cy="485.68" r="8.505"/>
	<circle style="fill:#333333;" cx="481.779" cy="353.189" r="8.505"/>
</g>

</svg>
