<?xml version="1.0" encoding="iso-8859-1"?>
<!-- Generator: Adobe Illustrator 19.0.0, SVG Export Plug-In . SVG Version: 6.00 Build 0)  -->
<svg xmlns="http://www.w3.org/2000/svg" xmlns:xlink="http://www.w3.org/1999/xlink" version="1.1" id="Layer_1" x="0px" y="0px" viewBox="0 0 511.99 511.99" style="enable-background:new 0 0 511.99 511.99;" xml:space="preserve" width="512px" height="512px">
<g>
	<g>
		<g>
			<path d="M510.209,292.74l-42.046-63.076l-42.266-105.631c-1.609-4.047-5.531-6.703-9.906-6.703H298.666V85.331     c0-5.891-4.766-10.672-10.672-10.672h-63.999c-25.75,0-47.296,18.351-52.249,42.671H10.672C4.781,117.33,0,122.103,0,127.994     v255.995c0,5.89,4.781,10.655,10.672,10.655h33.077c4.953,24.327,26.5,42.687,52.249,42.687     c25.765,0,47.312-18.359,52.265-42.687h215.48c4.953,24.327,26.499,42.687,52.248,42.687c25.766,0,47.312-18.359,52.266-42.687     h33.077c5.891,0,10.656-4.766,10.656-10.655v-85.343C511.99,296.553,511.381,294.49,510.209,292.74z M266.667,95.994h10.672     v21.336h-10.672V95.994z M223.995,95.994h21.343v21.336h-51.499C198.246,104.916,210.105,95.994,223.995,95.994z M95.998,415.987     c-17.64,0-32-14.343-32-31.998c0-17.656,14.359-32,32-32c17.656,0,32,14.344,32,32     C127.997,401.644,113.654,415.987,95.998,415.987z M362.665,287.99v85.343h-63.999V245.327h63.999V287.99z M298.666,223.992     v-42.663h63.999v42.663H298.666z M287.993,159.993c-5.89,0-10.655,4.773-10.655,10.664v202.676H148.263     c-4.954-24.328-26.5-42.688-52.265-42.688c-25.75,0-47.296,18.359-52.249,42.688H21.343V138.657h387.43l8.53,21.336H287.993z      M383.992,181.329L383.992,181.329h41.858l17.062,42.663h-58.92V181.329z M415.991,415.987c-17.64,0-31.998-14.343-31.998-31.998     c0-17.656,14.358-32,31.998-32c17.656,0,32,14.344,32,32C447.991,401.644,433.647,415.987,415.991,415.987z M490.662,309.334     h-10.671c-5.891,0-10.656,4.765-10.656,10.655c0,5.89,4.766,10.656,10.656,10.656h10.671v42.688h-22.405     c-4.953-24.328-26.5-42.688-52.266-42.688c-11.983,0-23.077,4-31.998,10.703v-96.021h68.967l37.702,56.569V309.334z" fill="#3c3c3c"/>
			<path d="M344.462,280.46c-4.172,4.156-4.172,10.905,0,15.062c4.156,4.188,10.922,4.188,15.078,0     c2.078-2.063,3.125-4.798,3.125-7.532c0-2.733-1.047-5.468-3.125-7.53C355.384,276.272,348.618,276.272,344.462,280.46z" fill="#3c3c3c"/>
		</g>
	</g>
</g>
<g>
	<g>
		<path d="M103.545,376.458c-4.156-4.188-10.922-4.188-15.078,0c-4.171,4.156-4.171,10.905,0,15.062    c4.156,4.188,10.922,4.188,15.078,0C107.717,387.364,107.717,380.615,103.545,376.458z" fill="#3c3c3c"/>
	</g>
</g>
<g>
	<g>
		<path d="M423.538,376.458c-4.156-4.188-10.922-4.188-15.077,0c-4.172,4.156-4.172,10.905,0,15.062    c4.155,4.188,10.921,4.188,15.077,0C427.71,387.364,427.71,380.615,423.538,376.458z" fill="#3c3c3c"/>
	</g>
</g>
<g>
	<g>
		<path d="M265.98,192.593l-0.219-1.156l-10.578-24.882c-0.016-0.031-0.031-0.062-0.047-0.102l-2.75-6.461h-7.047H53.343h-7.062    l-2.75,6.461c0,0.039-0.016,0.07-0.031,0.102l-10.468,24.601l-0.203,0.836c-0.406,1.672-0.609,3.383-0.609,5.078    c0,7.562,3.969,14.297,10.453,19.141v93.123c0,5.874,4.781,10.655,10.672,10.655h191.996c5.888,0,10.654-4.781,10.654-10.655    v-93.123c6.5-4.844,10.469-11.578,10.469-19.141C266.464,195.468,266.152,193.578,265.98,192.593z M234.667,298.646H63.998V287.99    h170.669V298.646z M234.668,266.655H63.998v-42.843c1.391,0.118,2.797,0.18,4.235,0.18c7.344,0,14.391-1.602,20.265-4.523    c5.891,2.922,12.938,4.523,20.281,4.523c7.359,0,14.406-1.602,20.281-4.523c5.875,2.922,12.921,4.523,20.281,4.523    c7.344,0,14.39-1.602,20.281-4.523c5.875,2.922,12.922,4.523,20.265,4.523c7.359,0,14.406-1.602,20.281-4.523    c5.875,2.922,12.921,4.523,20.281,4.523c1.438,0,2.844-0.062,4.219-0.18V266.655z M230.448,202.656    c-6.438,0-11.109-2.039-13.359-3.945l-6.921-5.914l-6.922,5.914c-2.234,1.906-6.922,3.945-13.359,3.945    c-6.421,0-11.109-2.039-13.343-3.945l-6.922-5.914l-6.938,5.914c-2.234,1.906-6.906,3.945-13.343,3.945    s-11.125-2.039-13.359-3.945l-6.922-5.914l-6.922,5.914c-2.234,1.906-6.922,3.945-13.359,3.945    c-6.438,0-11.109-2.039-13.344-3.945l-6.938-5.914l-6.921,5.914c-2.234,1.906-6.922,3.945-13.344,3.945    c-8.686,0-13.983-3.781-14.624-5.375l6.781-15.952h177.887l6.797,15.952C244.417,198.883,239.12,202.656,230.448,202.656z" fill="#3c3c3c"/>
	</g>
</g>
<g>
</g>
<g>
</g>
<g>
</g>
<g>
</g>
<g>
</g>
<g>
</g>
<g>
</g>
<g>
</g>
<g>
</g>
<g>
</g>
<g>
</g>
<g>
</g>
<g>
</g>
<g>
</g>
<g>
</g>
</svg>
